<svg xmlns="http://www.w3.org/2000/svg" xmlns:xlink="http://www.w3.org/1999/xlink" width="500" zoomAndPan="magnify" viewBox="0 0 375 412.499988" height="550" preserveAspectRatio="xMidYMid meet" version="1.0"><defs><clipPath id="9f4c0cb3ca"><path d="M 13 57.414062 L 362.980469 57.414062 L 362.980469 354 L 13 354 Z M 13 57.414062 " clip-rule="nonzero"/></clipPath></defs><g clip-path="url(#9f4c0cb3ca)"><path fill="#010104" d="M 63.53125 59.125 C 66.519531 57.472656 70.179688 58.023438 73.105469 59.488281 C 87.316406 65.96875 100.003906 75.558594 111.410156 86.191406 C 115.800781 90.164062 119.707031 94.625 123.792969 98.902344 C 163.746094 80.875 211.5625 80.507812 251.332031 99.207031 C 257.796875 91.324219 265.238281 84.359375 272.984375 77.761719 C 281.890625 70.488281 291.464844 63.828125 302.019531 59.125 C 305.496094 57.414062 310.070312 57.535156 312.9375 60.285156 C 315.011719 62.054688 316.292969 64.5 317.390625 66.945312 C 322.636719 78.921875 325.625 91.875 326.417969 104.890625 C 327.332031 120.714844 324.648438 136.601562 319.28125 151.449219 C 318.976562 152.246094 319.402344 153.039062 319.644531 153.710938 C 329.527344 175.648438 334.40625 199.84375 333.308594 223.917969 C 341.054688 224.714844 348.742188 226.300781 356.121094 228.929688 C 358.5625 229.722656 360.695312 231.496094 361.609375 233.941406 C 362.890625 237.421875 361.183594 241.761719 357.769531 243.167969 C 354.65625 244.632812 351.242188 243.472656 348.191406 242.554688 C 342.703125 240.90625 337.152344 239.5 331.417969 238.765625 C 330.503906 243.167969 329.769531 247.566406 328.308594 251.84375 C 336.664062 254.777344 344.777344 258.503906 352.09375 263.453125 C 356.183594 266.445312 355.570312 273.351562 351.425781 276.039062 C 348.800781 277.933594 345.082031 277.445312 342.457031 275.796875 C 338.617188 273.105469 334.347656 271.152344 330.136719 269.011719 C 327.820312 267.914062 325.5625 266.691406 323.0625 266.082031 C 315.132812 283.984375 303.847656 300.421875 289.574219 313.800781 C 273.960938 328.34375 255.175781 339.464844 234.863281 345.882812 C 214.003906 352.601562 191.742188 354.800781 169.964844 352.417969 C 146.484375 349.546875 123.425781 341.785156 103.664062 328.589844 C 80.667969 313.3125 62.1875 291.253906 51.390625 265.773438 C 44.867188 268.585938 38.460938 271.640625 32.484375 275.613281 C 29.679688 277.507812 25.589844 277.8125 22.847656 275.671875 C 18.882812 272.742188 18.882812 265.898438 23.089844 263.148438 C 30.226562 258.382812 37.972656 254.46875 46.148438 251.902344 C 44.925781 247.566406 43.828125 243.105469 42.976562 238.707031 C 36.386719 239.746094 29.921875 241.457031 23.640625 243.53125 C 20.222656 244.695312 15.894531 243.65625 14.0625 240.417969 C 11.746094 236.566406 13.636719 231.25 17.722656 229.480469 C 25.226562 226.363281 33.398438 225.078125 41.390625 223.796875 C 40.597656 200.089844 44.988281 176.195312 54.441406 154.445312 C 54.746094 153.40625 55.601562 152.367188 55.234375 151.265625 C 49.011719 133.363281 46.511719 113.992188 49.378906 95.175781 C 50.78125 85.277344 53.464844 75.558594 57.492188 66.457031 C 58.957031 63.828125 60.480469 60.589844 63.53125 59.125 M 69.875 79.105469 C 68.714844 81.304688 68.226562 83.808594 67.496094 86.191406 C 61.699219 106.476562 63.53125 128.476562 70.847656 148.089844 C 71.519531 150.105469 72.433594 152.304688 71.765625 154.445312 C 70.847656 157.4375 69.261719 160.128906 68.226562 163.058594 C 60.480469 182.003906 56.332031 202.59375 57.125 223.125 C 67.3125 223.308594 77.558594 223.980469 87.621094 225.324219 C 89.878906 225.628906 92.441406 227.15625 92.320312 229.722656 C 92.503906 232.230469 90.0625 234 87.804688 234.304688 C 78.046875 234.855469 68.289062 235.589844 58.589844 236.8125 C 58.957031 240.417969 59.992188 243.839844 60.722656 247.382812 C 71.460938 245.792969 82.316406 244.511719 93.171875 244.511719 C 94.820312 244.570312 96.648438 245.183594 97.625 246.589844 C 99.210938 248.972656 97.625 252.578125 94.941406 253.308594 C 90.308594 254.46875 85.609375 255.203125 81.035156 256.363281 C 76.09375 257.464844 71.335938 259.113281 66.457031 260.273438 C 66.519531 261.3125 66.761719 262.351562 67.3125 263.269531 C 79.328125 288.261719 99.332031 309.523438 123.976562 322.355469 C 145.507812 333.660156 170.210938 338.488281 194.425781 337.386719 C 220.773438 336.164062 246.878906 327.367188 267.984375 311.417969 C 285.125 298.648438 298.601562 281.355469 307.8125 262.046875 C 307.933594 261.621094 308.179688 260.765625 308.300781 260.273438 C 304.519531 259.417969 300.800781 258.136719 297.015625 257.21875 C 291.589844 255.753906 286.039062 254.777344 280.546875 253.554688 C 277.863281 253.125 275.851562 250.132812 276.828125 247.503906 C 277.558594 245.304688 280.121094 244.328125 282.316406 244.386719 C 292.808594 244.386719 303.300781 245.550781 313.667969 247.136719 C 314.765625 243.714844 315.316406 240.234375 316.167969 236.75 C 307.140625 235.527344 298.113281 234.855469 289.027344 234.367188 C 287.503906 234.304688 285.792969 234.429688 284.574219 233.390625 C 282.867188 232.230469 281.890625 229.847656 282.925781 227.890625 C 283.71875 226.300781 285.367188 225.445312 287.074219 225.324219 C 297.140625 223.917969 307.265625 223.125 317.449219 223.003906 C 318.121094 201.25 313.484375 179.496094 304.640625 159.636719 C 303.664062 157.378906 302.445312 155.117188 302.445312 152.613281 C 302.386719 150.902344 303.054688 149.25 303.664062 147.722656 C 311.898438 126.09375 313.363281 101.40625 305.191406 79.53125 C 304.519531 77.515625 301.773438 77.027344 300.128906 78.125 C 285.792969 86.496094 273.535156 97.863281 262.3125 109.898438 C 260.421875 111.917969 258.835938 114.238281 256.578125 115.886719 C 254.136719 117.234375 251.210938 116.5 248.894531 115.214844 C 230.59375 105.929688 210.101562 101.222656 189.605469 100.980469 C 167.890625 100.671875 145.996094 105.195312 126.539062 114.910156 C 124.402344 116.011719 121.964844 117.109375 119.460938 116.4375 C 117.265625 115.949219 116.109375 113.8125 114.644531 112.285156 C 103.117188 99.269531 90.183594 87.351562 75.242188 78.371094 C 73.714844 77.332031 71.03125 77.394531 69.875 79.105469 Z M 69.875 79.105469 " fill-opacity="1" fill-rule="nonzero"/></g><path fill="#010104" d="M 113.179688 198.4375 C 121.78125 196.484375 131.234375 201.492188 134.527344 209.621094 C 137.515625 216.34375 136.050781 224.835938 130.867188 230.089844 C 124.707031 236.8125 113.484375 238.21875 106.105469 232.71875 C 99.820312 228.5625 96.648438 220.4375 98.296875 213.105469 C 99.820312 205.894531 105.921875 199.90625 113.179688 198.4375 Z M 113.179688 198.4375 " fill-opacity="1" fill-rule="nonzero"/><path fill="#010104" d="M 254.566406 198.4375 C 264.628906 196.117188 275.546875 203.265625 277.4375 213.410156 C 279.511719 222.941406 272.863281 233.085938 263.53125 235.527344 C 253.285156 238.644531 241.574219 231.3125 239.558594 220.863281 C 237.304688 210.84375 244.683594 200.273438 254.566406 198.4375 Z M 254.566406 198.4375 " fill-opacity="1" fill-rule="nonzero"/><path fill="#010104" d="M 176.980469 231.066406 C 182.226562 230.578125 187.472656 231.007812 192.714844 230.882812 C 195.460938 230.882812 198.695312 230.457031 200.828125 232.535156 C 202.660156 234.125 202.78125 237.117188 201.316406 239.011719 C 199 242.371094 196.070312 245.183594 193.507812 248.300781 C 192.410156 249.582031 191.375 250.925781 190.03125 251.964844 C 188.324219 252.941406 185.761719 253.1875 184.300781 251.597656 C 181.617188 248.972656 179.480469 245.855469 176.859375 243.226562 C 175.089844 241.027344 172.527344 238.949219 172.648438 235.894531 C 172.589844 233.390625 174.722656 231.433594 176.980469 231.066406 Z M 176.980469 231.066406 " fill-opacity="1" fill-rule="nonzero"/><path fill="#010104" d="M 152.460938 257.832031 C 153.742188 256.363281 156.179688 256.304688 157.644531 257.585938 C 158.804688 258.5625 158.925781 260.152344 159.230469 261.558594 C 159.839844 265.714844 163.011719 269.5625 167.222656 270.417969 C 171.855469 271.703125 177.039062 269.195312 179.359375 265.101562 C 180.761719 263.085938 181.371094 260.152344 183.933594 259.296875 C 187.226562 258.257812 191.863281 258.320312 193.691406 261.804688 C 195.460938 265.101562 197.472656 268.707031 201.253906 269.992188 C 206.988281 272.679688 214.429688 268.890625 215.894531 262.78125 C 216.382812 260.949219 216.320312 258.5625 218.089844 257.402344 C 219.859375 256 222.785156 256.851562 223.457031 259.054688 C 224.007812 261.4375 223.09375 263.757812 222.300781 265.957031 C 219.859375 272.863281 213.027344 278.238281 205.648438 278.238281 C 199.304688 278.546875 193.203125 274.816406 189.789062 269.625 C 188.933594 268.402344 188.386719 266.996094 187.347656 265.957031 C 184.664062 271.578125 179.90625 276.652344 173.5625 277.933594 C 169.292969 278.667969 164.660156 278.300781 161 275.855469 C 156.304688 273.046875 153.191406 268.097656 151.910156 262.78125 C 151.484375 261.070312 151.242188 259.113281 152.460938 257.832031 Z M 152.460938 257.832031 " fill-opacity="1" fill-rule="nonzero"/></svg>