<svg xmlns="http://www.w3.org/2000/svg" xmlns:xlink="http://www.w3.org/1999/xlink" width="500" zoomAndPan="magnify" viewBox="0 0 375 412.499988" height="550" preserveAspectRatio="xMidYMid meet" version="1.0"><path fill="#000000" d="M 161.136719 26.160156 C 152.527344 26.160156 145.167969 32.253906 143.515625 40.710938 L 137.515625 71.566406 C 122.765625 77.152344 109.125 84.953125 97.152344 94.796875 L 67.597656 84.605469 C 59.457031 81.800781 50.5 85.167969 46.1875 92.617188 L 19.089844 139.640625 C 14.796875 147.109375 16.359375 156.589844 22.847656 162.238281 L 46.539062 182.867188 C 45.304688 190.449219 44.503906 198.167969 44.503906 206.097656 C 44.503906 214.027344 45.304688 221.746094 46.539062 229.328125 L 22.847656 249.957031 C 16.359375 255.605469 14.796875 265.085938 19.089844 272.554688 L 46.1875 319.578125 C 50.484375 327.042969 59.457031 330.414062 67.597656 327.625 L 97.152344 317.433594 C 109.121094 327.269531 122.769531 335.046875 137.515625 340.628906 L 143.515625 371.484375 C 145.167969 379.941406 152.527344 386.035156 161.136719 386.035156 L 215.398438 386.035156 C 224.003906 386.035156 231.363281 379.941406 233.015625 371.484375 L 239.019531 340.628906 C 253.769531 335.042969 267.40625 327.242188 279.382812 317.398438 L 308.933594 327.589844 C 317.074219 330.398438 326.03125 327.042969 330.34375 319.578125 L 357.441406 272.519531 C 361.734375 265.050781 360.171875 255.605469 353.6875 249.957031 L 329.996094 229.328125 C 331.226562 221.746094 332.03125 214.027344 332.03125 206.097656 C 332.03125 198.167969 331.226562 190.449219 329.996094 182.867188 L 353.6875 162.238281 C 360.171875 156.589844 361.734375 147.109375 357.441406 139.640625 L 330.34375 92.617188 C 326.050781 85.152344 317.074219 81.78125 308.933594 84.570312 L 279.382812 94.761719 C 267.410156 84.925781 253.761719 77.148438 239.019531 71.566406 L 233.015625 40.710938 C 231.363281 32.253906 224.003906 26.160156 215.398438 26.160156 Z M 188.265625 134.125 C 227.964844 134.125 260.148438 166.351562 260.148438 206.097656 C 260.148438 245.84375 227.964844 278.070312 188.265625 278.070312 C 148.570312 278.070312 116.382812 245.84375 116.382812 206.097656 C 116.382812 166.351562 148.570312 134.125 188.265625 134.125 Z M 188.265625 134.125 " fill-opacity="1" fill-rule="nonzero"/></svg>