<svg xmlns="http://www.w3.org/2000/svg" xmlns:xlink="http://www.w3.org/1999/xlink" width="500" zoomAndPan="magnify" viewBox="0 0 375 374.999991" height="500" preserveAspectRatio="xMidYMid meet" version="1.0"><defs><clipPath id="cbc794f546"><path d="M 49.363281 49.363281 L 325.363281 49.363281 L 325.363281 325.363281 L 49.363281 325.363281 Z M 49.363281 49.363281 " clip-rule="nonzero"/></clipPath></defs><g clip-path="url(#cbc794f546)"><path fill="#000000" d="M 187.523438 325.660156 C 177.835938 325.660156 168.617188 321.335938 162.371094 314.09375 C 157.738281 316.4375 152.5625 317.691406 147.371094 317.691406 C 143.019531 317.691406 138.757812 316.839844 134.707031 315.167969 C 125.734375 311.453125 118.867188 303.910156 115.875 294.808594 C 115.011719 294.875 114.148438 294.910156 113.285156 294.910156 C 104.429688 294.910156 96.105469 291.460938 89.847656 285.203125 C 82.996094 278.351562 79.539062 268.773438 80.242188 259.238281 C 71.160156 256.242188 63.632812 249.386719 59.921875 240.433594 C 56.203125 231.460938 56.679688 221.269531 61 212.714844 C 53.730469 206.472656 49.386719 197.242188 49.386719 187.523438 C 49.386719 177.835938 53.714844 168.617188 60.957031 162.371094 C 56.652344 153.835938 56.179688 143.660156 59.882812 134.707031 C 63.597656 125.730469 71.144531 118.863281 80.246094 115.871094 C 79.523438 106.316406 82.976562 96.71875 89.847656 89.847656 C 96.105469 83.589844 104.433594 80.140625 113.285156 80.140625 C 114.128906 80.140625 114.972656 80.171875 115.816406 80.234375 C 118.8125 71.160156 125.667969 63.632812 134.617188 59.921875 C 138.671875 58.242188 142.9375 57.386719 147.296875 57.386719 C 152.503906 57.386719 157.691406 58.648438 162.335938 61 C 168.578125 53.734375 177.808594 49.386719 187.523438 49.386719 C 197.214844 49.386719 206.433594 53.714844 212.675781 60.957031 C 217.3125 58.613281 222.484375 57.359375 227.679688 57.359375 C 232.03125 57.359375 236.292969 58.207031 240.339844 59.882812 C 249.316406 63.597656 256.183594 71.140625 259.175781 80.242188 C 260.035156 80.171875 260.902344 80.140625 261.765625 80.140625 C 270.617188 80.140625 278.941406 83.585938 285.203125 89.847656 C 292.054688 96.699219 295.511719 106.277344 294.808594 115.8125 C 303.890625 118.808594 311.417969 125.664062 315.128906 134.613281 C 318.847656 143.589844 318.371094 153.78125 314.046875 162.332031 C 321.316406 168.578125 325.660156 177.808594 325.660156 187.523438 C 325.660156 197.214844 321.335938 206.433594 314.09375 212.679688 C 318.394531 221.214844 318.871094 231.386719 315.164062 240.339844 C 311.449219 249.316406 303.90625 256.1875 294.800781 259.175781 C 295.527344 268.734375 292.070312 278.332031 285.203125 285.203125 C 278.941406 291.460938 270.617188 294.910156 261.761719 294.910156 C 261.765625 294.910156 261.761719 294.910156 261.761719 294.910156 C 260.917969 294.910156 260.074219 294.878906 259.234375 294.8125 C 256.238281 303.890625 249.382812 311.417969 240.433594 315.128906 C 236.378906 316.808594 232.109375 317.660156 227.75 317.660156 C 222.542969 317.660156 217.359375 316.398438 212.714844 314.046875 C 206.472656 321.316406 197.238281 325.660156 187.523438 325.660156 Z M 163.835938 301.203125 C 164.195312 301.203125 164.554688 301.238281 164.914062 301.308594 C 166.441406 301.613281 167.769531 302.546875 168.570312 303.878906 C 172.613281 310.601562 179.699219 314.609375 187.523438 314.609375 C 195.371094 314.609375 202.46875 310.582031 206.503906 303.835938 C 207.308594 302.496094 208.636719 301.554688 210.167969 301.25 C 211.699219 300.949219 213.289062 301.304688 214.539062 302.234375 C 218.34375 305.054688 223.035156 306.609375 227.75 306.609375 C 230.652344 306.609375 233.492188 306.042969 236.199219 304.917969 C 243.429688 301.921875 248.441406 295.5 249.597656 287.746094 C 249.832031 286.207031 250.699219 284.835938 251.992188 283.972656 C 253.289062 283.105469 254.886719 282.828125 256.398438 283.203125 C 258.148438 283.636719 259.953125 283.859375 261.765625 283.859375 C 267.667969 283.859375 273.21875 281.5625 277.390625 277.386719 C 282.9375 271.839844 285.105469 263.972656 283.191406 256.347656 C 282.808594 254.832031 283.085938 253.226562 283.953125 251.929688 C 284.820312 250.632812 286.195312 249.761719 287.742188 249.535156 C 295.519531 248.382812 301.957031 243.367188 304.957031 236.117188 C 307.949219 228.886719 306.949219 220.804688 302.289062 214.5 C 301.363281 213.25 301.007812 211.664062 301.308594 210.136719 C 301.613281 208.609375 302.546875 207.28125 303.882812 206.480469 C 310.601562 202.4375 314.613281 195.351562 314.613281 187.527344 C 314.613281 179.679688 310.582031 172.582031 303.835938 168.546875 C 302.496094 167.742188 301.558594 166.414062 301.25 164.882812 C 300.945312 163.351562 301.304688 161.765625 302.234375 160.511719 C 306.921875 154.195312 307.925781 146.097656 304.917969 138.851562 C 301.921875 131.621094 295.5 126.613281 287.746094 125.449219 C 286.207031 125.21875 284.835938 124.351562 283.972656 123.058594 C 283.105469 121.761719 282.828125 120.164062 283.203125 118.652344 C 285.097656 111.042969 282.921875 103.195312 277.390625 97.664062 C 273.214844 93.488281 267.667969 91.191406 261.765625 91.191406 C 259.9375 91.191406 258.113281 91.417969 256.347656 91.859375 C 254.832031 92.242188 253.230469 91.964844 251.933594 91.097656 C 250.632812 90.230469 249.761719 88.855469 249.535156 87.308594 C 248.382812 79.53125 243.367188 73.09375 236.117188 70.09375 C 233.414062 68.976562 230.574219 68.410156 227.679688 68.410156 C 222.976562 68.410156 218.296875 69.957031 214.5 72.761719 C 213.25 73.6875 211.664062 74.046875 210.136719 73.742188 C 208.609375 73.4375 207.28125 72.503906 206.480469 71.167969 C 202.4375 64.449219 195.351562 60.4375 187.523438 60.4375 C 179.675781 60.4375 172.582031 64.46875 168.542969 71.214844 C 167.742188 72.554688 166.414062 73.492188 164.882812 73.796875 C 163.351562 74.101562 161.761719 73.746094 160.511719 72.816406 C 156.707031 69.992188 152.015625 68.4375 147.296875 68.4375 C 144.398438 68.4375 141.554688 69.007812 138.847656 70.132812 C 131.617188 73.128906 126.609375 79.546875 125.449219 87.304688 C 125.21875 88.84375 124.351562 90.214844 123.054688 91.078125 C 121.761719 91.945312 120.164062 92.226562 118.652344 91.847656 C 116.902344 91.414062 115.09375 91.191406 113.285156 91.191406 C 107.382812 91.191406 101.832031 93.492188 97.660156 97.664062 C 92.109375 103.214844 89.941406 111.078125 91.859375 118.707031 C 92.242188 120.21875 91.964844 121.824219 91.097656 123.121094 C 90.230469 124.417969 88.855469 125.289062 87.308594 125.519531 C 79.53125 126.667969 73.09375 131.683594 70.09375 138.9375 C 67.101562 146.167969 68.097656 154.25 72.761719 160.550781 C 73.6875 161.804688 74.042969 163.386719 73.742188 164.914062 C 73.4375 166.441406 72.503906 167.769531 71.167969 168.574219 C 64.449219 172.613281 60.4375 179.699219 60.4375 187.523438 C 60.4375 195.371094 64.46875 202.46875 71.214844 206.503906 C 72.554688 207.308594 73.492188 208.636719 73.796875 210.167969 C 74.101562 211.699219 73.746094 213.289062 72.816406 214.539062 C 68.128906 220.855469 67.125 228.953125 70.128906 236.199219 C 73.128906 243.429688 79.546875 248.441406 87.304688 249.601562 C 88.84375 249.828125 90.214844 250.699219 91.078125 251.992188 C 91.945312 253.289062 92.222656 254.886719 91.847656 256.398438 C 89.957031 264.007812 92.128906 271.855469 97.664062 277.390625 C 101.835938 281.5625 107.382812 283.859375 113.285156 283.859375 C 115.113281 283.859375 116.9375 283.632812 118.703125 283.191406 C 120.21875 282.808594 121.824219 283.085938 123.121094 283.953125 C 124.417969 284.820312 125.289062 286.195312 125.515625 287.742188 C 126.667969 295.519531 131.683594 301.953125 138.933594 304.953125 C 141.636719 306.074219 144.476562 306.640625 147.371094 306.640625 C 152.074219 306.640625 156.757812 305.09375 160.550781 302.289062 C 161.507812 301.578125 162.664062 301.203125 163.835938 301.203125 Z M 163.835938 301.203125 " fill-opacity="1" fill-rule="nonzero"/></g><path fill="#000000" d="M 104.644531 193.050781 C 92.457031 193.050781 82.539062 183.136719 82.539062 170.949219 C 82.539062 158.761719 92.457031 148.847656 104.644531 148.847656 C 116.832031 148.847656 126.746094 158.761719 126.746094 170.949219 C 126.746094 174 124.273438 176.472656 121.21875 176.472656 C 118.167969 176.472656 115.695312 174 115.695312 170.949219 C 115.695312 164.855469 110.738281 159.898438 104.644531 159.898438 C 98.550781 159.898438 93.59375 164.855469 93.59375 170.949219 C 93.59375 177.042969 98.550781 182 104.644531 182 C 107.695312 182 110.167969 184.472656 110.167969 187.523438 C 110.167969 190.578125 107.695312 193.050781 104.644531 193.050781 Z M 104.644531 193.050781 " fill-opacity="1" fill-rule="nonzero"/><path fill="#000000" d="M 104.644531 226.203125 C 92.457031 226.203125 82.539062 216.289062 82.539062 204.101562 C 82.539062 201.050781 85.015625 198.574219 88.066406 198.574219 C 91.117188 198.574219 93.589844 201.050781 93.589844 204.101562 C 93.589844 210.195312 98.550781 215.152344 104.640625 215.152344 C 110.734375 215.152344 115.695312 210.195312 115.695312 204.101562 C 115.695312 198.007812 110.738281 193.050781 104.644531 193.050781 C 101.589844 193.050781 99.117188 190.578125 99.117188 187.523438 C 99.117188 184.472656 101.589844 182 104.644531 182 C 116.832031 182 126.746094 191.914062 126.746094 204.101562 C 126.746094 216.289062 116.828125 226.203125 104.644531 226.203125 Z M 104.644531 226.203125 " fill-opacity="1" fill-rule="nonzero"/><path fill="#000000" d="M 231.730469 226.203125 L 198.578125 226.203125 C 195.523438 226.203125 193.050781 223.730469 193.050781 220.675781 L 193.050781 154.371094 C 193.050781 151.320312 195.523438 148.847656 198.578125 148.847656 C 201.628906 148.847656 204.101562 151.320312 204.101562 154.371094 L 204.101562 215.152344 L 231.730469 215.152344 C 234.78125 215.152344 237.253906 217.625 237.253906 220.675781 C 237.253906 223.730469 234.78125 226.203125 231.730469 226.203125 Z M 231.730469 226.203125 " fill-opacity="1" fill-rule="nonzero"/><path fill="#000000" d="M 264.882812 226.203125 L 253.832031 226.203125 C 250.78125 226.203125 248.304688 223.730469 248.304688 220.675781 L 248.304688 154.371094 C 248.304688 151.320312 250.777344 148.847656 253.832031 148.847656 L 264.882812 148.847656 C 280.117188 148.847656 292.507812 161.238281 292.507812 176.472656 L 292.507812 198.574219 C 292.507812 213.808594 280.117188 226.203125 264.882812 226.203125 Z M 259.355469 215.152344 L 264.882812 215.152344 C 274.023438 215.152344 281.457031 207.714844 281.457031 198.574219 L 281.457031 176.472656 C 281.457031 167.332031 274.023438 159.894531 264.882812 159.894531 L 259.355469 159.894531 Z M 259.355469 215.152344 " fill-opacity="1" fill-rule="nonzero"/><path fill="#000000" d="M 159.898438 226.203125 C 147.710938 226.203125 137.796875 216.289062 137.796875 204.101562 L 137.796875 170.949219 C 137.796875 158.761719 147.710938 148.847656 159.898438 148.847656 C 172.085938 148.847656 182 158.761719 182 170.949219 L 182 204.101562 C 182 216.289062 172.085938 226.203125 159.898438 226.203125 Z M 159.898438 159.898438 C 153.804688 159.898438 148.847656 164.855469 148.847656 170.949219 L 148.847656 204.101562 C 148.847656 210.195312 153.804688 215.152344 159.898438 215.152344 C 165.992188 215.152344 170.949219 210.195312 170.949219 204.101562 L 170.949219 170.949219 C 170.949219 164.855469 165.992188 159.898438 159.898438 159.898438 Z M 159.898438 159.898438 " fill-opacity="1" fill-rule="nonzero"/></svg>